# xmcd CD database file
#
# Track frame offsets:
#	150
#	23838
#	47398
#	69075
#	92120
#	112976
#	129745
#	143870
#	166389
#	188806
#	211448
#
# Disc length: 3402 seconds
#
# Revision: 0
# Processed by: cddbd v1.5.2PL0 Copyright (c) Steve Scherf et al.
# Submitted via: CDex 1.51
#
DISCID=920d480b
DTITLE=Artuuro Fiesta Circo - Distratto a Sud
DYEAR=2008
DGENRE=Jazz
TTITLE0=Nel Traffico
TTITLE1=Jazzin' Camomilla
TTITLE2=Rimini
TTITLE3=Putain de ta Bière
TTITLE4=Another Day
TTITLE5=Nozze Bulgare
TTITLE6=Anita
TTITLE7=Il Tango dei Temporali
TTITLE8=T'en fais pas
TTITLE9=Baila Baila
TTITLE10=All'ombra del Cipresso
EXTD=YEAR: 2008
EXTT0=
EXTT1=
EXTT2=
EXTT3=
EXTT4=
EXTT5=
EXTT6=
EXTT7=
EXTT8=
EXTT9=
EXTT10=
PLAYORDER=
